<svg width="216" height="23" viewBox="0 0 216 23" fill="none" xmlns="http://www.w3.org/2000/svg">
<g style="mix-blend-mode:hard-light" filter="url(#filter0_d)">
<path d="M5.53127 0.985999H13.8923L13.7933 3.137H7.61027L7.35827 6.278C7.83827 6.008 8.29427 5.813 8.72627 5.693C9.16427 5.573 9.64427 5.513 10.1663 5.513C11.0303 5.513 11.8073 5.678 12.4973 6.008C13.1873 6.332 13.7333 6.809 14.1353 7.439C14.5373 8.069 14.7383 8.837 14.7383 9.743C14.7383 10.661 14.5313 11.453 14.1173 12.119C13.7033 12.785 13.1153 13.298 12.3533 13.658C11.5973 14.018 10.7003 14.198 9.66227 14.198C8.81027 14.198 8.01827 14.066 7.28627 13.802C6.55427 13.538 5.92127 13.178 5.38727 12.722C4.85327 12.26 4.44827 11.732 4.17227 11.138L6.22427 9.923C6.57827 10.535 7.00127 11.048 7.49327 11.462C7.98527 11.876 8.61827 12.083 9.39227 12.083C10.1723 12.083 10.7993 11.876 11.2733 11.462C11.7473 11.048 11.9843 10.508 11.9843 9.842C11.9843 9.218 11.7503 8.696 11.2823 8.276C10.8203 7.85 10.2203 7.637 9.48227 7.637C9.08027 7.637 8.70827 7.691 8.36627 7.799C8.03027 7.907 7.64327 8.135 7.20527 8.483C7.12127 8.519 7.06127 8.537 7.02527 8.537C6.99527 8.537 6.93527 8.516 6.84527 8.474L4.93727 7.592L5.53127 0.985999ZM26.4978 14.198C25.6818 14.198 24.9228 14.042 24.2208 13.73C23.5248 13.418 22.9548 12.98 22.5108 12.416C22.0668 11.846 21.8178 11.18 21.7638 10.418H24.2658C24.3738 10.922 24.6138 11.333 24.9858 11.651C25.3578 11.963 25.8258 12.119 26.3898 12.119C27.0138 12.119 27.5598 11.972 28.0278 11.678C28.5018 11.384 28.8558 10.916 29.0898 10.274C29.3298 9.632 29.4138 8.792 29.3418 7.754C29.0838 8.234 28.6908 8.618 28.1628 8.906C27.6348 9.188 27.0078 9.329 26.2818 9.329C25.3998 9.329 24.6168 9.164 23.9328 8.834C23.2548 8.498 22.7208 8.024 22.3308 7.412C21.9468 6.794 21.7548 6.062 21.7548 5.216C21.7548 4.364 21.9588 3.605 22.3668 2.939C22.7748 2.273 23.3448 1.751 24.0768 1.373C24.8088 0.994999 25.6668 0.805999 26.6508 0.805999C27.7548 0.805999 28.7058 1.07 29.5038 1.598C30.3078 2.12 30.9228 2.864 31.3488 3.83C31.7808 4.79 31.9968 5.921 31.9968 7.223C31.9968 9.551 31.5078 11.297 30.5298 12.461C29.5518 13.619 28.2078 14.198 26.4978 14.198ZM26.7318 7.241C27.0978 7.241 27.4518 7.16 27.7938 6.998C28.1418 6.83 28.4268 6.62 28.6488 6.368C28.8708 6.116 28.9818 5.855 28.9818 5.585C28.9878 4.709 28.7808 4.025 28.3608 3.533C27.9468 3.041 27.4038 2.795 26.7318 2.795C26.1138 2.795 25.6008 3.008 25.1928 3.434C24.7848 3.86 24.5808 4.415 24.5808 5.099C24.5808 5.777 24.7788 6.305 25.1748 6.683C25.5708 7.055 26.0898 7.241 26.7318 7.241ZM43.9533 0.805999C45.5013 0.805999 46.7223 1.385 47.6163 2.543C48.5103 3.701 48.9573 5.36 48.9573 7.52C48.9573 9.674 48.5133 11.327 47.6253 12.479C46.7433 13.625 45.5193 14.198 43.9533 14.198C42.3753 14.198 41.1423 13.625 40.2543 12.479C39.3723 11.333 38.9313 9.683 38.9313 7.529C38.9313 5.363 39.3783 3.701 40.2723 2.543C41.1723 1.385 42.3993 0.805999 43.9533 0.805999ZM43.9533 12.047C44.7333 12.047 45.3003 11.702 45.6543 11.012C46.0143 10.322 46.1943 9.161 46.1943 7.529C46.1943 5.867 46.0113 4.676 45.6453 3.956C45.2793 3.236 44.7123 2.876 43.9443 2.876C43.1763 2.876 42.6033 3.239 42.2253 3.965C41.8533 4.691 41.6673 5.879 41.6673 7.529C41.6673 9.149 41.8533 10.307 42.2253 11.003C42.5973 11.699 43.1733 12.047 43.9533 12.047ZM58.2368 14V4.253H55.9148V2.768C57.0308 2.768 57.8348 2.612 58.3268 2.3C58.8188 1.982 59.0948 1.544 59.1548 0.985999H60.9008V14H58.2368ZM69.257 14V12.038C69.257 11.378 69.38 10.808 69.626 10.328C69.872 9.842 70.196 9.422 70.598 9.068C71.006 8.714 71.45 8.402 71.93 8.132C72.416 7.856 72.902 7.601 73.388 7.367C73.874 7.127 74.318 6.884 74.72 6.638C75.128 6.392 75.455 6.119 75.701 5.819C75.947 5.513 76.07 5.159 76.07 4.757C76.07 4.235 75.887 3.809 75.521 3.479C75.155 3.149 74.66 2.984 74.036 2.984C73.382 2.984 72.824 3.173 72.362 3.551C71.906 3.929 71.627 4.499 71.525 5.261H69.014C69.02 4.433 69.212 3.683 69.59 3.011C69.968 2.333 70.532 1.796 71.282 1.4C72.032 1.004 72.974 0.805999 74.108 0.805999C75.08 0.805999 75.917 0.970999 76.619 1.301C77.327 1.631 77.873 2.09 78.257 2.678C78.641 3.266 78.833 3.953 78.833 4.739C78.833 5.399 78.713 5.966 78.473 6.44C78.233 6.908 77.915 7.313 77.519 7.655C77.123 7.991 76.688 8.285 76.214 8.537C75.74 8.789 75.266 9.023 74.792 9.239C74.324 9.449 73.892 9.668 73.496 9.896C73.1 10.118 72.782 10.37 72.542 10.652C72.302 10.934 72.182 11.273 72.182 11.669V11.786H78.815V14H69.257ZM85.9388 4.991C85.9388 4.055 86.1578 3.278 86.5958 2.66C87.0398 2.042 87.6338 1.58 88.3778 1.274C89.1278 0.961999 89.9648 0.805999 90.8888 0.805999C91.8608 0.805999 92.7248 0.931999 93.4808 1.184C94.2428 1.436 94.8428 1.82 95.2808 2.336C95.7188 2.852 95.9378 3.506 95.9378 4.298C95.9378 4.94 95.7488 5.507 95.3708 5.999C94.9988 6.491 94.3958 6.878 93.5618 7.16C94.0418 7.292 94.4858 7.493 94.8938 7.763C95.3018 8.033 95.6288 8.378 95.8748 8.798C96.1208 9.218 96.2438 9.722 96.2438 10.31C96.2438 11.162 95.9978 11.879 95.5058 12.461C95.0198 13.037 94.3658 13.472 93.5438 13.766C92.7278 14.06 91.8218 14.204 90.8258 14.198C89.2598 14.192 88.0448 13.814 87.1808 13.064C86.3168 12.314 85.8758 11.285 85.8578 9.977H88.3868C88.5128 10.721 88.7978 11.258 89.2418 11.588C89.6918 11.912 90.2288 12.074 90.8528 12.074C91.6628 12.074 92.2958 11.903 92.7518 11.561C93.2138 11.213 93.4448 10.769 93.4448 10.229C93.4448 9.671 93.2078 9.23 92.7338 8.906C92.2658 8.576 91.6688 8.402 90.9428 8.384L89.7008 8.339V6.251L90.8168 6.188C91.5188 6.158 92.0828 5.981 92.5088 5.657C92.9348 5.327 93.1478 4.913 93.1478 4.415C93.1478 3.941 92.9288 3.56 92.4908 3.272C92.0588 2.984 91.5068 2.84 90.8348 2.84C90.2168 2.84 89.6768 3.002 89.2148 3.326C88.7528 3.644 88.4978 4.199 88.4498 4.991H85.9388ZM109.071 0.985999H111.654V8.915H113.661V11.12H111.654V14H109.125L109.134 11.12H103.14V8.96L109.071 0.985999ZM105.57 8.915H109.134V4.145L105.57 8.915ZM122.675 14V4.253H120.353V2.768C121.469 2.768 122.273 2.612 122.765 2.3C123.257 1.982 123.533 1.544 123.593 0.985999H125.339V14H122.675ZM133.695 14V12.038C133.695 11.378 133.818 10.808 134.064 10.328C134.31 9.842 134.634 9.422 135.036 9.068C135.444 8.714 135.888 8.402 136.368 8.132C136.854 7.856 137.34 7.601 137.826 7.367C138.312 7.127 138.756 6.884 139.158 6.638C139.566 6.392 139.893 6.119 140.139 5.819C140.385 5.513 140.508 5.159 140.508 4.757C140.508 4.235 140.325 3.809 139.959 3.479C139.593 3.149 139.098 2.984 138.474 2.984C137.82 2.984 137.262 3.173 136.8 3.551C136.344 3.929 136.065 4.499 135.963 5.261H133.452C133.458 4.433 133.65 3.683 134.028 3.011C134.406 2.333 134.97 1.796 135.72 1.4C136.47 1.004 137.412 0.805999 138.546 0.805999C139.518 0.805999 140.355 0.970999 141.057 1.301C141.765 1.631 142.311 2.09 142.695 2.678C143.079 3.266 143.271 3.953 143.271 4.739C143.271 5.399 143.151 5.966 142.911 6.44C142.671 6.908 142.353 7.313 141.957 7.655C141.561 7.991 141.126 8.285 140.652 8.537C140.178 8.789 139.704 9.023 139.23 9.239C138.762 9.449 138.33 9.668 137.934 9.896C137.538 10.118 137.22 10.37 136.98 10.652C136.74 10.934 136.62 11.273 136.62 11.669V11.786H143.253V14H133.695ZM150.377 4.991C150.377 4.055 150.596 3.278 151.034 2.66C151.478 2.042 152.072 1.58 152.816 1.274C153.566 0.961999 154.403 0.805999 155.327 0.805999C156.299 0.805999 157.163 0.931999 157.919 1.184C158.681 1.436 159.281 1.82 159.719 2.336C160.157 2.852 160.376 3.506 160.376 4.298C160.376 4.94 160.187 5.507 159.809 5.999C159.437 6.491 158.834 6.878 158 7.16C158.48 7.292 158.924 7.493 159.332 7.763C159.74 8.033 160.067 8.378 160.313 8.798C160.559 9.218 160.682 9.722 160.682 10.31C160.682 11.162 160.436 11.879 159.944 12.461C159.458 13.037 158.804 13.472 157.982 13.766C157.166 14.06 156.26 14.204 155.264 14.198C153.698 14.192 152.483 13.814 151.619 13.064C150.755 12.314 150.314 11.285 150.296 9.977H152.825C152.951 10.721 153.236 11.258 153.68 11.588C154.13 11.912 154.667 12.074 155.291 12.074C156.101 12.074 156.734 11.903 157.19 11.561C157.652 11.213 157.883 10.769 157.883 10.229C157.883 9.671 157.646 9.23 157.172 8.906C156.704 8.576 156.107 8.402 155.381 8.384L154.139 8.339V6.251L155.255 6.188C155.957 6.158 156.521 5.981 156.947 5.657C157.373 5.327 157.586 4.913 157.586 4.415C157.586 3.941 157.367 3.56 156.929 3.272C156.497 2.984 155.945 2.84 155.273 2.84C154.655 2.84 154.115 3.002 153.653 3.326C153.191 3.644 152.936 4.199 152.888 4.991H150.377ZM173.509 0.985999H176.092V8.915H178.099V11.12H176.092V14H173.563L173.572 11.12H167.578V8.96L173.509 0.985999ZM170.008 8.915H173.572V4.145L170.008 8.915ZM185.957 0.985999H194.318L194.219 3.137H188.036L187.784 6.278C188.264 6.008 188.72 5.813 189.152 5.693C189.59 5.573 190.07 5.513 190.592 5.513C191.456 5.513 192.233 5.678 192.923 6.008C193.613 6.332 194.159 6.809 194.561 7.439C194.963 8.069 195.164 8.837 195.164 9.743C195.164 10.661 194.957 11.453 194.543 12.119C194.129 12.785 193.541 13.298 192.779 13.658C192.023 14.018 191.126 14.198 190.088 14.198C189.236 14.198 188.444 14.066 187.712 13.802C186.98 13.538 186.347 13.178 185.813 12.722C185.279 12.26 184.874 11.732 184.598 11.138L186.65 9.923C187.004 10.535 187.427 11.048 187.919 11.462C188.411 11.876 189.044 12.083 189.818 12.083C190.598 12.083 191.225 11.876 191.699 11.462C192.173 11.048 192.41 10.508 192.41 9.842C192.41 9.218 192.176 8.696 191.708 8.276C191.246 7.85 190.646 7.637 189.908 7.637C189.506 7.637 189.134 7.691 188.792 7.799C188.456 7.907 188.069 8.135 187.631 8.483C187.547 8.519 187.487 8.537 187.451 8.537C187.421 8.537 187.361 8.516 187.271 8.474L185.363 7.592L185.957 0.985999ZM202.126 0.985999H211.846V3.137C211.438 3.653 211.024 4.262 210.604 4.964C210.184 5.666 209.782 6.416 209.398 7.214C209.014 8.012 208.669 8.819 208.363 9.635C208.063 10.451 207.82 11.234 207.634 11.984C207.448 12.734 207.346 13.406 207.328 14H204.493C204.541 13.472 204.661 12.806 204.853 12.002C205.045 11.192 205.324 10.298 205.69 9.32C206.062 8.336 206.527 7.316 207.085 6.26C207.649 5.204 208.321 4.163 209.101 3.137H202.126V0.985999Z" fill="black"/>
</g>
<defs>
<filter id="filter0_d" x="0.172272" y="0.806" width="215.674" height="21.3922" filterUnits="userSpaceOnUse" color-interpolation-filters="sRGB">
<feFlood flood-opacity="0" result="BackgroundImageFix"/>
<feColorMatrix in="SourceAlpha" type="matrix" values="0 0 0 0 0 0 0 0 0 0 0 0 0 0 0 0 0 0 127 0" result="hardAlpha"/>
<feOffset dy="4"/>
<feGaussianBlur stdDeviation="2"/>
<feComposite in2="hardAlpha" operator="out"/>
<feColorMatrix type="matrix" values="0 0 0 0 0 0 0 0 0 0 0 0 0 0 0 0 0 0 0.25 0"/>
<feBlend mode="normal" in2="BackgroundImageFix" result="effect1_dropShadow"/>
<feBlend mode="normal" in="SourceGraphic" in2="effect1_dropShadow" result="shape"/>
</filter>
</defs>
</svg>
